# xmcd CD database file
#
# Track frame offsets:
#	150
#	15139
#	33902
#	47535
#	62689
#	76406
#	90836
#	104984
#	120738
#	131295
#	146098
#	152977
#	168897
#	170571
#
# Disc length: 2289 seconds
#
# Revision: 0
# Processed by: cddbd v1.5.2PL0 Copyright (c) Steve Scherf et al.
# Submitted via: CDex 1.96
#
DISCID=aa08ef0e
DTITLE=Various Artist - Jazz Classics: Instrumental Play-Along
DYEAR=2007
DGENRE=Jazz
TTITLE0=Bernie's Tune (Bernie Miller)
TTITLE1=Desafinado (Antonio Carlos Jobim)
TTITLE2=Fever (John Davenport et Eddie Cooley)
TTITLE3=Fly Me to the Moon (In Other Words) (Bart Howard)
TTITLE4=God Bless' The Child (Arthur Herzog Jf. et Billie Holiday)
TTITLE5=A Night In Tunisia (John "Dizzy" Gillespie et Franck Paparelli)
TTITLE6=One Note Samba (Samba De Uma Nota So) (Antonio Carlos Jobim)
TTITLE7=Satin Doll (Duke Ellington)
TTITLE8=Stompin' At The Savoy (Benny Goodman, Edgar Sampson, Chick Webb)
TTITLE9=Take The "A" Train (Billy Strayhorn)
TTITLE10=Woodchopper's Ball (Joe Bishop et Woody Herman)
TTITLE11=Yardbird Suite (Charlie Parker)
TTITLE12=B Tuning Notes
TTITLE13=A Tuning Notes
EXTD=YEAR: 2007
EXTT0=
EXTT1=
EXTT2=
EXTT3=
EXTT4=
EXTT5=
EXTT6=
EXTT7=
EXTT8=
EXTT9=
EXTT10=
EXTT11=
EXTT12=
EXTT13=
PLAYORDER=
